# Blender v2.67 (sub 0) OBJ File: 'Box export file.blend'
# www.blender.org
mtllib crate 2.mtl
o crate_2
v -1.507492 0.974960 -1.000000
v -1.507492 0.974960 1.000000
v -1.507492 0.000000 -1.000000
v -1.724434 0.000000 -0.900969
v -1.898408 0.000000 -0.623490
v -1.994956 0.000000 -0.222521
v -1.994956 0.000000 0.222521
v -1.898408 0.000000 0.623490
v -1.724434 0.000000 0.900969
v -1.724434 0.974960 -0.900969
v -1.898408 0.974960 -0.623490
v -1.994956 0.974960 -0.222521
v -1.994956 0.974960 0.222521
v -1.898408 0.974960 0.623490
v -1.724434 0.974960 0.900969
v -1.471882 1.006548 -0.930179
v -1.673677 1.006548 -0.838062
v -1.835504 1.006548 -0.579957
v -1.925311 1.006548 -0.206984
v -1.835504 1.006548 0.579957
v -1.673677 1.006548 0.838062
v 1.507492 0.974960 -1.000000
v 1.507492 0.974960 1.000000
v 1.507492 0.000000 -1.000000
v 1.724434 0.000000 -0.900969
v 1.898408 0.000000 -0.623490
v 1.994956 0.000000 -0.222521
v 1.994956 0.000000 0.222521
v 1.724434 0.000000 0.900969
v 1.724434 0.974960 -0.900969
v 1.898408 0.974960 -0.623490
v 1.994956 0.974960 -0.222521
v 1.994956 0.974960 0.222521
v 1.898408 0.974960 0.623490
v 1.724434 0.974960 0.900969
v 1.471882 1.006548 0.930179
v 1.471882 1.006548 -0.930179
v 1.673677 1.006548 -0.838062
v 1.835504 1.006548 -0.579957
v 1.925311 1.006548 -0.206984
v 1.925311 1.006548 0.206984
v 1.673677 1.006548 0.838062
v -2.005462 0.000000 0.000000
v -2.005462 0.974960 0.000000
v -1.925311 1.006548 0.206984
v -1.471882 1.006548 0.930179
v -1.507492 0.000000 1.000000
v 2.005462 0.000000 0.000000
v 2.005462 0.974960 0.000000
v 1.835504 1.006548 0.579957
v 1.507492 0.000000 1.000000
v 1.898408 0.000000 0.623490
vt 0.915332 0.971828
vt 0.878028 0.971828
vt 0.915332 0.808567
vt 0.808965 0.971828
vt 0.878028 0.808567
vt 0.754122 0.971828
vt 0.808965 0.808567
vt 1.209316 0.971829
vt 1.169382 0.971829
vt 1.209316 0.808568
vt 1.114539 0.971829
vt 1.169382 0.808567
vt 1.045476 0.971829
vt 1.114539 0.808567
vt 0.666525 0.077787
vt 0.682775 0.145305
vt 0.669913 0.148058
vt 0.666109 0.287961
vt 0.636344 0.334561
vt 0.654532 0.280127
vt 0.637004 0.031092
vt 0.654922 0.085563
vt 0.600191 0.014172
vt 0.593926 0.027083
vt 0.008172 0.971827
vt 0.008172 0.808565
vt 0.045476 0.808565
vt 1.714188 0.971828
vt 1.714188 0.808567
vt 1.754122 0.808567
vt 1.754122 0.971828
vt 1.808965 0.808567
vt 1.808965 0.971828
vt 1.878028 0.808566
vt 0.028505 0.077391
vt 0.040057 0.085204
vt 0.011990 0.144745
vt 0.058176 0.030908
vt 0.067319 0.042293
vt 0.010172 0.551158
vt 0.028099 0.446752
vt 0.028099 0.655564
vt 0.094944 0.014174
vt 0.101172 0.027036
vt 0.598432 0.383705
vt 0.598432 0.718614
vt 0.093559 0.718613
vt 0.057564 0.333921
vt 0.066759 0.322565
vt 0.094272 0.350806
vt 1.008172 0.971829
vt 1.045476 0.808567
vt 0.684435 0.182890
vt 0.669789 0.217673
vt 1.878028 0.971828
vt 1.915331 0.808566
vt 0.682644 0.220476
vt 0.100533 0.337957
vt 0.627174 0.323147
vt 0.011803 0.219819
vt 0.024652 0.217074
vt 0.039625 0.279505
vt 0.627796 0.042469
vt 0.593254 0.338441
vt 0.114539 0.971827
vt 0.114539 0.808566
vt 0.169382 0.808566
vt 0.011931 0.513896
vt 0.681819 0.551160
vt 0.680060 0.588422
vt 0.663892 0.655566
vt 0.010172 0.182274
vt 0.714188 0.971828
vt 0.754123 0.808566
vt 0.028033 0.287280
vt 0.024822 0.147549
vt 0.634760 0.400288
vt 0.634760 0.702031
vt 0.209315 0.971827
vt 0.209316 0.808566
vt 0.714189 0.808566
vt 0.663893 0.446753
vt 0.057232 0.400287
vt 0.093560 0.383704
vt 0.680060 0.513897
vt 0.169382 0.971827
vt 0.057231 0.702030
vt 0.599491 0.351360
vt 0.045476 0.971827
vt 0.011931 0.588420
vt 1.008172 0.808567
vt 1.915332 0.971828
vn -0.717399 -0.696616 0.000000
vn -0.719871 -0.686453 0.102695
vn -0.824183 0.566240 -0.006989
vn -0.682119 -0.672567 0.286905
vn -0.838954 0.530625 0.120640
vn -0.502029 -0.647816 0.572954
vn -0.780938 0.528611 0.332621
vn -0.159185 -0.662252 -0.732139
vn -0.502029 -0.647816 -0.572954
vn -0.186804 0.523453 -0.831294
vn -0.682119 -0.672567 -0.286905
vn -0.561907 0.520341 -0.643025
vn -0.719871 -0.686453 -0.102695
vn -0.780938 0.528611 -0.332621
vn -0.838191 0.532823 -0.116184
vn -0.221442 0.974853 -0.024537
vn -0.561907 0.520341 0.643025
vn -0.203497 0.975768 0.080172
vn -0.203497 0.975768 -0.080172
vn -0.038881 0.974639 -0.220344
vn 0.717399 -0.696616 0.000000
vn 0.834681 0.550676 0.000000
vn 0.838954 0.530625 0.120640
vn 0.159185 -0.662252 -0.732139
vn 0.186804 0.523453 -0.831294
vn 0.561907 0.520341 -0.643025
vn 0.502029 -0.647816 -0.572954
vn 0.780938 0.528611 -0.332621
vn 0.682119 -0.672567 -0.286905
vn 0.838954 0.530625 -0.120640
vn 0.203497 0.975768 -0.080172
vn 0.145238 0.975890 -0.162725
vn 0.682119 -0.672567 0.286905
vn 0.038881 0.974639 -0.220344
vn -0.159185 -0.662252 0.732139
vn 0.561907 0.520341 0.643025
vn 0.145238 0.975890 0.162725
vn 0.186804 0.523453 0.831294
vn -0.217566 0.975616 0.028291
vn 0.719871 -0.686453 -0.102695
vn 0.038881 0.974639 0.220344
vn -0.145238 0.975890 0.162725
vn 0.217475 0.975616 0.028871
vn 0.203497 0.975768 0.080172
vn -0.145238 0.975890 -0.162725
vn -0.038881 0.974639 0.220344
vn 0.780938 0.528611 0.332621
vn 0.719871 -0.686453 0.102695
vn 0.217475 0.975616 -0.028871
vn 0.159185 -0.662252 0.732139
vn -0.186804 0.523453 0.831294
vn 0.502029 -0.647816 0.572954
g crate_2_crate_2_crate_2
usemtl crate_2
s 1
f 43/1/1 7/2/2 44/3/3
f 7/2/2 8/4/4 13/5/5
f 8/4/4 9/6/6 14/7/7
f 3/8/8 4/9/9 1/10/10
f 4/9/9 5/11/11 10/12/12
f 5/11/11 6/13/13 11/14/14
f 11/15/14 12/16/15 19/17/16
f 14/18/7 15/19/17 20/20/18
f 10/21/12 11/15/14 18/22/19
f 1/23/10 10/21/12 16/24/20
f 48/25/21 49/26/22 33/27/23
f 24/28/24 22/29/25 30/30/26
f 25/31/27 30/30/26 31/32/28
f 26/33/29 31/32/28 32/34/30
f 31/35/28 39/36/31 32/37/30
f 30/38/26 38/39/32 31/35/28
f 48/40/21 52/41/33 26/42/29
f 22/43/25 1/23/10 37/44/34
f 47/45/35 3/46/8 24/47/24
f 35/48/36 42/49/37 23/50/38
f 22/43/25 37/44/34 38/39/32
f 24/28/24 3/8/8 22/29/25
f 6/13/13 43/51/1 12/52/15
f 12/16/15 44/53/3 45/54/39
f 27/55/40 32/34/30 49/56/22
f 44/53/3 13/57/5 45/54/39
f 38/39/32 37/44/34 36/58/41
f 18/22/19 20/20/18 21/59/42
f 33/60/23 41/61/43 50/62/44
f 17/63/45 21/59/42 46/64/46
f 52/65/33 34/66/47 35/67/36
f 28/68/48 52/41/33 48/40/21
f 43/69/1 6/70/13 5/71/11
f 49/72/22 41/61/43 33/60/23
f 16/24/20 46/64/46 36/58/41
f 9/6/6 47/73/35 15/74/17
f 39/36/31 38/39/32 42/49/37
f 13/57/5 14/18/7 45/54/39
f 34/75/47 50/62/44 42/49/37
f 19/17/16 45/54/39 20/20/18
f 32/37/30 40/76/49 49/72/22
f 23/50/38 36/58/41 46/64/46
f 9/77/6 4/78/9 3/46/8
f 51/79/50 23/80/38 2/81/51
f 8/82/4 5/71/11 4/78/9
f 29/83/52 51/84/50 24/47/24
f 40/76/49 39/36/31 50/62/44
f 7/85/2 43/69/1 8/82/4
f 29/86/52 35/67/36 23/80/38
f 52/41/33 29/83/52 25/87/27
f 15/19/17 2/88/51 46/64/46
f 28/89/48 33/27/23 34/66/47
f 7/2/2 13/5/5 44/3/3
f 8/4/4 14/7/7 13/5/5
f 9/6/6 15/74/17 14/7/7
f 4/9/9 10/12/12 1/10/10
f 5/11/11 11/14/14 10/12/12
f 6/13/13 12/52/15 11/14/14
f 18/22/19 11/15/14 19/17/16
f 15/19/17 21/59/42 20/20/18
f 17/63/45 10/21/12 18/22/19
f 10/21/12 17/63/45 16/24/20
f 28/89/48 48/25/21 33/27/23
f 25/31/27 24/28/24 30/30/26
f 26/33/29 25/31/27 31/32/28
f 27/55/40 26/33/29 32/34/30
f 39/36/31 40/76/49 32/37/30
f 38/39/32 39/36/31 31/35/28
f 27/90/40 48/40/21 26/42/29
f 1/23/10 16/24/20 37/44/34
f 51/84/50 47/45/35 24/47/24
f 42/49/37 36/58/41 23/50/38
f 30/38/26 22/43/25 38/39/32
f 3/8/8 1/10/10 22/29/25
f 43/51/1 44/91/3 12/52/15
f 19/17/16 12/16/15 45/54/39
f 48/92/21 27/55/40 49/56/22
f 42/49/37 38/39/32 36/58/41
f 17/63/45 18/22/19 21/59/42
f 34/75/47 33/60/23 50/62/44
f 16/24/20 17/63/45 46/64/46
f 29/86/52 52/65/33 35/67/36
f 8/82/4 43/69/1 5/71/11
f 37/44/34 16/24/20 36/58/41
f 47/73/35 2/81/51 15/74/17
f 50/62/44 39/36/31 42/49/37
f 14/18/7 20/20/18 45/54/39
f 35/48/36 34/75/47 42/49/37
f 18/22/19 19/17/16 20/20/18
f 40/76/49 41/61/43 49/72/22
f 2/88/51 23/50/38 46/64/46
f 47/45/35 9/77/6 3/46/8
f 47/73/35 51/79/50 2/81/51
f 9/77/6 8/82/4 4/78/9
f 25/87/27 29/83/52 24/47/24
f 41/61/43 40/76/49 50/62/44
f 51/79/50 29/86/52 23/80/38
f 26/42/29 52/41/33 25/87/27
f 21/59/42 15/19/17 46/64/46
f 52/65/33 28/89/48 34/66/47
