# Blender v2.67 (sub 0) OBJ File: 'Box export file.blend'
# www.blender.org
mtllib pellet.mtl
o pellet
v 0.500000 0.000000 -0.500000
v 0.500000 -0.000000 0.500000
v -0.500000 -0.000000 0.500000
v -0.500000 0.000000 -0.500000
v 0.500000 0.031279 0.500000
v 0.500000 0.031280 -0.500000
v -0.500000 0.031279 0.500000
v -0.500000 0.031280 -0.500000
v -0.409091 -0.000000 0.500000
v -0.318182 -0.000000 0.500000
v -0.227273 -0.000000 0.500000
v -0.136364 -0.000000 0.500000
v -0.045455 -0.000000 0.500000
v 0.045455 -0.000000 0.500000
v 0.136364 -0.000000 0.500000
v 0.227273 -0.000000 0.500000
v 0.318182 -0.000000 0.500000
v 0.409091 -0.000000 0.500000
v 0.409091 0.000000 -0.500000
v 0.318182 0.000000 -0.500000
v 0.227273 0.000000 -0.500000
v 0.136364 0.000000 -0.500000
v 0.045455 0.000000 -0.500000
v -0.045455 0.000000 -0.500000
v -0.136364 0.000000 -0.500000
v -0.227273 0.000000 -0.500000
v -0.318182 0.000000 -0.500000
v -0.409091 0.000000 -0.500000
v -0.409091 0.031279 0.500000
v -0.318182 0.031279 0.500000
v -0.227273 0.031279 0.500000
v -0.136364 0.031279 0.500000
v -0.045455 0.031279 0.500000
v 0.045455 0.031279 0.500000
v 0.136364 0.031279 0.500000
v 0.227273 0.031279 0.500000
v 0.318182 0.031279 0.500000
v 0.409091 0.031279 0.500000
v 0.409091 0.031280 -0.500000
v 0.318182 0.031280 -0.500000
v 0.227273 0.031280 -0.500000
v 0.136364 0.031280 -0.500000
v 0.045455 0.031280 -0.500000
v -0.045455 0.031280 -0.500000
v -0.136364 0.031280 -0.500000
v -0.227273 0.031280 -0.500000
v -0.318182 0.031280 -0.500000
v -0.409091 0.031280 -0.500000
v 0.500000 0.114516 -0.500000
v 0.500000 0.114516 0.500000
v -0.500000 0.114516 0.500000
v -0.500000 0.114516 -0.500000
v 0.500000 0.145795 0.500000
v 0.500000 0.145796 -0.500000
v -0.500000 0.145795 0.500000
v -0.500000 0.145796 -0.500000
v -0.409091 0.114516 0.500000
v -0.318182 0.114516 0.500000
v -0.227273 0.114516 0.500000
v -0.136364 0.114516 0.500000
v -0.045455 0.114516 0.500000
v 0.045455 0.114516 0.500000
v 0.136364 0.114516 0.500000
v 0.227273 0.114516 0.500000
v 0.318182 0.114516 0.500000
v 0.409091 0.114516 0.500000
v 0.409091 0.114516 -0.500000
v 0.318182 0.114516 -0.500000
v 0.227273 0.114516 -0.500000
v 0.136364 0.114516 -0.500000
v 0.045455 0.114516 -0.500000
v -0.045455 0.114516 -0.500000
v -0.136364 0.114516 -0.500000
v -0.227273 0.114516 -0.500000
v -0.318182 0.114516 -0.500000
v -0.409091 0.114516 -0.500000
v -0.409091 0.145795 0.500000
v -0.318182 0.145795 0.500000
v -0.227273 0.145795 0.500000
v -0.136364 0.145795 0.500000
v -0.045455 0.145795 0.500000
v 0.045455 0.145795 0.500000
v 0.136364 0.145795 0.500000
v 0.227273 0.145795 0.500000
v 0.318182 0.145795 0.500000
v 0.409091 0.145795 0.500000
v 0.409091 0.145796 -0.500000
v 0.318182 0.145796 -0.500000
v 0.227273 0.145796 -0.500000
v 0.136364 0.145796 -0.500000
v 0.045455 0.145796 -0.500000
v -0.045455 0.145796 -0.500000
v -0.136364 0.145796 -0.500000
v -0.227273 0.145796 -0.500000
v -0.318182 0.145796 -0.500000
v -0.409091 0.145796 -0.500000
v 0.516583 0.030000 0.453636
v 0.516583 0.030000 0.326364
v -0.514708 0.030000 0.326364
v -0.514708 0.030000 0.453636
v 0.516583 0.115795 0.453636
v 0.516583 0.115795 0.326364
v -0.514708 0.115795 0.326364
v -0.514708 0.115795 0.453636
v 0.514708 0.115796 -0.453636
v 0.514708 0.115796 -0.326364
v -0.516583 0.115796 -0.326364
v -0.516583 0.115796 -0.453636
v 0.514708 0.030000 -0.453636
v 0.514708 0.030000 -0.326364
v -0.516583 0.030000 -0.326364
v -0.516583 0.030000 -0.453636
v 0.514708 0.115796 -0.063636
v 0.514708 0.115796 0.063636
v -0.516583 0.115796 0.063636
v -0.516583 0.115796 -0.063636
v 0.514708 0.030000 -0.063636
v 0.514708 0.030000 0.063636
v -0.516583 0.030000 0.063636
v -0.516583 0.030000 -0.063636
vt 0.014673 0.892639
vt 0.459223 0.892638
vt 0.459223 0.906543
vt 0.892938 0.643179
vt 0.933351 0.643179
vt 0.933351 0.657084
vt 0.459209 0.999229
vt 0.014673 0.999229
vt 0.459209 0.985324
vt 0.933351 0.599682
vt 0.892938 0.599682
vt 0.892938 0.585777
vt 0.000771 0.349493
vt 0.445312 0.349493
vt 0.445312 0.389906
vt 0.891396 0.601224
vt 0.891396 0.641637
vt 0.446855 0.641637
vt 0.906844 0.899299
vt 0.947257 0.899299
vt 0.947257 0.913203
vt 0.906857 0.291373
vt 0.947270 0.291373
vt 0.947270 0.305278
vt 0.906857 0.275925
vt 0.947270 0.275925
vt 0.947270 0.289830
vt 0.906857 0.248700
vt 0.947270 0.248700
vt 0.947270 0.262605
vt 0.892938 0.685135
vt 0.933351 0.685135
vt 0.933351 0.699040
vt 0.947257 0.928652
vt 0.906844 0.928652
vt 0.906844 0.914747
vt 0.947257 0.944099
vt 0.906844 0.944099
vt 0.906844 0.930194
vt 0.947270 0.057349
vt 0.906857 0.057349
vt 0.906857 0.043444
vt 0.947270 0.247158
vt 0.906857 0.247158
vt 0.906857 0.233253
vt 0.947270 0.897756
vt 0.906858 0.897756
vt 0.906858 0.883851
vt 0.459209 0.921991
vt 0.014673 0.921991
vt 0.459209 0.908085
vt 0.446855 0.685135
vt 0.891396 0.685135
vt 0.891396 0.725548
vt 0.460765 0.883852
vt 0.905315 0.883851
vt 0.905315 0.897756
vt 0.446855 0.391448
vt 0.891396 0.391448
vt 0.891396 0.431861
vt 0.905302 0.913204
vt 0.460765 0.913204
vt 0.905302 0.899299
vt 0.446855 0.517314
vt 0.891396 0.517314
vt 0.891396 0.557727
vt 0.460765 0.852957
vt 0.905316 0.852956
vt 0.905316 0.866861
vt 0.000771 0.391448
vt 0.445312 0.391448
vt 0.445312 0.431861
vt 0.460765 0.868404
vt 0.905315 0.868403
vt 0.905315 0.882309
vt 0.446855 0.643180
vt 0.891396 0.643180
vt 0.891396 0.683592
vt 0.459209 0.983781
vt 0.014673 0.983781
vt 0.459209 0.969876
vt 0.445312 0.475359
vt 0.445312 0.515771
vt 0.000771 0.515772
vt 0.460765 0.178124
vt 0.905315 0.178123
vt 0.905315 0.192028
vt 0.445312 0.643180
vt 0.445312 0.683592
vt 0.000771 0.683593
vt 0.905302 0.974994
vt 0.460765 0.974994
vt 0.905302 0.961089
vt 0.445312 0.433403
vt 0.445312 0.473816
vt 0.000771 0.473816
vt 0.460765 0.117013
vt 0.905315 0.117012
vt 0.905315 0.130917
vt 0.445312 0.517314
vt 0.445312 0.557727
vt 0.000771 0.557727
vt 0.905302 0.990442
vt 0.460765 0.990442
vt 0.905302 0.976537
vt 0.445312 0.601224
vt 0.445312 0.641637
vt 0.000771 0.641637
vt 0.460765 0.058893
vt 0.905315 0.058891
vt 0.905315 0.072797
vt 0.906857 0.178123
vt 0.947270 0.178123
vt 0.947270 0.192028
vt 0.459209 0.937438
vt 0.014673 0.937439
vt 0.459209 0.923533
vt 0.933351 0.615129
vt 0.892938 0.615129
vt 0.892938 0.601224
vt 0.446855 0.559269
vt 0.891396 0.559269
vt 0.891396 0.599682
vt 0.891396 0.811001
vt 0.891396 0.851413
vt 0.446855 0.851413
vt 0.892938 0.627732
vt 0.933351 0.627732
vt 0.933351 0.641637
vt 0.906858 0.852956
vt 0.947270 0.852956
vt 0.947271 0.866861
vt 0.906858 0.868404
vt 0.947270 0.868404
vt 0.947270 0.882309
vt 0.906857 0.117012
vt 0.947270 0.117012
vt 0.947270 0.130917
vt 0.906844 0.945641
vt 0.947257 0.945641
vt 0.947257 0.959546
vt 0.933351 0.389906
vt 0.892938 0.389906
vt 0.892938 0.376001
vt 0.947270 0.072796
vt 0.906857 0.072796
vt 0.906857 0.058891
vt 0.933351 0.515772
vt 0.892938 0.515772
vt 0.892938 0.501867
vt 0.933351 0.363398
vt 0.892938 0.363398
vt 0.892938 0.349493
vt 0.933351 0.683592
vt 0.892938 0.683592
vt 0.892938 0.669687
vt 0.905302 0.928652
vt 0.460765 0.928652
vt 0.905302 0.914746
vt 0.446855 0.433403
vt 0.891396 0.433403
vt 0.891396 0.473816
vt 0.460765 0.291373
vt 0.905315 0.291373
vt 0.905315 0.305278
vt 0.446855 0.349493
vt 0.891396 0.349493
vt 0.891396 0.389906
vt 0.459209 0.952886
vt 0.014673 0.952886
vt 0.459209 0.938981
vt 0.000771 0.727090
vt 0.445312 0.727090
vt 0.445312 0.767503
vt 0.000771 0.685135
vt 0.445312 0.685135
vt 0.445312 0.725548
vt 0.460765 0.043445
vt 0.905315 0.043444
vt 0.905315 0.057349
vt 0.000771 0.559269
vt 0.445312 0.559269
vt 0.445312 0.599682
vt 0.459209 0.968334
vt 0.014673 0.968333
vt 0.459209 0.954428
vt 0.445312 0.769045
vt 0.445312 0.809458
vt 0.000771 0.809458
vt 0.460765 0.233254
vt 0.905315 0.233252
vt 0.905315 0.247158
vt 0.891396 0.475359
vt 0.891396 0.515771
vt 0.446855 0.515772
vt 0.905302 0.959547
vt 0.460765 0.959547
vt 0.905302 0.945642
vt 0.445312 0.811001
vt 0.445312 0.851413
vt 0.000771 0.851414
vt 0.460765 0.248701
vt 0.905315 0.248700
vt 0.905315 0.262605
vt 0.891396 0.727090
vt 0.891396 0.767503
vt 0.446855 0.767503
vt 0.905302 0.944099
vt 0.460765 0.944099
vt 0.905302 0.930194
vt 0.891396 0.769045
vt 0.891396 0.809458
vt 0.446855 0.809458
vt 0.460765 0.275926
vt 0.905315 0.275925
vt 0.905315 0.289830
vt 0.931078 0.431130
vt 0.931078 0.487708
vt 0.892938 0.487708
vt 0.949516 0.809458
vt 0.892938 0.809458
vt 0.949516 0.771319
vt 0.459222 0.173590
vt 0.000771 0.173590
vt 0.000771 0.117012
vt 0.919217 0.038911
vt 0.460765 0.038911
vt 0.460765 0.000771
vt 0.460765 0.135450
vt 0.919216 0.135450
vt 0.460765 0.173590
vt 0.000771 0.231710
vt 0.000771 0.175132
vt 0.459223 0.231710
vt 0.459223 0.233252
vt 0.459223 0.289830
vt 0.000771 0.233252
vt 0.919217 0.115470
vt 0.460765 0.115470
vt 0.460765 0.077330
vt 0.460765 0.193570
vt 0.919216 0.193570
vt 0.460765 0.231710
vt 0.000771 0.058892
vt 0.459223 0.058891
vt 0.459223 0.115469
vt 0.931078 0.710925
vt 0.931078 0.767503
vt 0.892938 0.767503
vt 0.949516 0.429588
vt 0.892938 0.429588
vt 0.949516 0.391448
vt 0.459223 0.291373
vt 0.459223 0.347951
vt 0.000771 0.291373
vt 0.919217 0.347951
vt 0.460765 0.347951
vt 0.460765 0.309811
vt 0.000771 0.852956
vt 0.459223 0.852956
vt 0.000771 0.891096
vt 0.000771 0.000771
vt 0.459223 0.000771
vt 0.459223 0.057349
vt 0.931078 0.517314
vt 0.931078 0.573892
vt 0.892938 0.573892
vt 0.949516 0.849140
vt 0.892938 0.849140
vt 0.949516 0.811001
vt 0.014673 0.906543
vt 0.892938 0.657084
vt 0.014673 0.985324
vt 0.933351 0.585777
vt 0.000771 0.389906
vt 0.446855 0.601224
vt 0.906844 0.913203
vt 0.906857 0.305278
vt 0.906857 0.289830
vt 0.906857 0.262605
vt 0.892938 0.699040
vt 0.947257 0.914747
vt 0.947257 0.930194
vt 0.947270 0.043444
vt 0.947270 0.233253
vt 0.947270 0.883851
vt 0.014673 0.908086
vt 0.446855 0.725547
vt 0.460765 0.897756
vt 0.446855 0.431861
vt 0.460765 0.899299
vt 0.446855 0.557727
vt 0.460765 0.866861
vt 0.000771 0.431861
vt 0.460765 0.882308
vt 0.446855 0.683592
vt 0.014673 0.969876
vt 0.000771 0.475359
vt 0.460765 0.192028
vt 0.000771 0.643180
vt 0.460765 0.961089
vt 0.000771 0.433404
vt 0.460765 0.130917
vt 0.000771 0.517314
vt 0.460765 0.976537
vt 0.000771 0.601225
vt 0.460765 0.072797
vt 0.906857 0.192028
vt 0.014673 0.923534
vt 0.933351 0.601224
vt 0.446855 0.599682
vt 0.446855 0.811001
vt 0.892938 0.641637
vt 0.906858 0.866861
vt 0.906858 0.882309
vt 0.906857 0.130917
vt 0.906844 0.959546
vt 0.933351 0.376001
vt 0.947270 0.058891
vt 0.933351 0.501867
vt 0.933351 0.349493
vt 0.933351 0.669687
vt 0.460765 0.914747
vt 0.446855 0.473816
vt 0.460765 0.305277
vt 0.446855 0.389906
vt 0.014673 0.938981
vt 0.000771 0.767503
vt 0.000771 0.725548
vt 0.460765 0.057349
vt 0.000771 0.599682
vt 0.014673 0.954428
vt 0.000771 0.769046
vt 0.460765 0.247158
vt 0.446855 0.475359
vt 0.460765 0.945642
vt 0.000771 0.811001
vt 0.460765 0.262605
vt 0.446855 0.727090
vt 0.460765 0.930194
vt 0.446855 0.769045
vt 0.460765 0.289830
vt 0.892938 0.431130
vt 0.892938 0.771319
vt 0.459222 0.117012
vt 0.919217 0.000771
vt 0.919216 0.173590
vt 0.459223 0.175132
vt 0.000771 0.289830
vt 0.919217 0.077330
vt 0.919216 0.231710
vt 0.000771 0.115470
vt 0.892938 0.710925
vt 0.892938 0.391448
vt 0.000771 0.347950
vt 0.919217 0.309811
vt 0.459223 0.891096
vt 0.000771 0.057349
vt 0.892938 0.517314
vt 0.892938 0.811001
vn 0.577349 0.577349 -0.577349
vn 0.577349 0.577349 0.577349
vn 0.577349 -0.577349 0.577349
vn -0.577349 0.577349 0.577349
vn -0.577349 -0.577349 0.577349
vn -0.577349 0.577349 -0.577349
vn 0.577349 -0.577349 -0.577349
vn -0.577349 -0.577349 -0.577349
g pellet_pellet_pellet
usemtl pellet
s 1
f 6/1/1 5/2/2 2/3/3
f 29/4/2 7/5/4 3/6/5
f 7/7/4 8/8/6 3/9/5
f 39/10/6 6/11/1 1/12/7
f 28/13/7 9/14/3 3/15/5
f 38/16/4 5/17/2 6/18/1
f 5/19/2 38/20/4 18/21/5
f 37/22/2 36/23/4 16/24/5
f 35/25/2 34/26/4 14/27/5
f 33/28/2 32/29/4 12/30/5
f 31/31/2 30/32/4 10/33/5
f 8/34/6 48/35/1 28/36/7
f 47/37/6 46/38/1 26/39/7
f 45/40/6 44/41/1 24/42/7
f 43/43/6 42/44/1 22/45/7
f 41/46/6 40/47/1 20/48/7
f 38/49/4 39/50/6 18/51/5
f 1/52/7 2/53/3 18/54/5
f 40/55/1 37/56/2 17/57/3
f 20/58/7 17/59/3 16/60/5
f 36/61/4 41/62/6 16/63/5
f 22/64/7 15/65/3 14/66/5
f 54/67/1 53/68/2 50/69/3
f 24/70/7 13/71/3 12/72/5
f 42/73/1 35/74/2 15/75/3
f 26/76/7 11/77/3 10/78/5
f 34/79/4 43/80/6 14/81/5
f 7/82/4 29/83/2 48/84/1
f 48/85/1 29/86/2 9/87/3
f 30/88/4 31/89/2 46/90/1
f 30/91/4 47/92/6 10/93/5
f 32/94/4 33/95/2 44/96/1
f 46/97/1 31/98/2 11/99/3
f 34/100/4 35/101/2 42/102/1
f 32/103/4 45/104/6 12/105/5
f 36/106/4 37/107/2 40/108/1
f 44/109/1 33/110/2 13/111/3
f 77/112/2 55/113/4 51/114/5
f 55/115/4 56/116/6 51/117/5
f 87/118/6 54/119/1 49/120/7
f 76/121/7 57/122/3 51/123/5
f 86/124/4 53/125/2 54/126/1
f 53/127/2 86/128/4 66/129/5
f 85/130/2 84/131/4 64/132/5
f 83/133/2 82/134/4 62/135/5
f 81/136/2 80/137/4 60/138/5
f 79/139/2 78/140/4 58/141/5
f 56/142/6 96/143/1 76/144/7
f 95/145/6 94/146/1 74/147/7
f 93/148/6 92/149/1 72/150/7
f 91/151/6 90/152/1 70/153/7
f 89/154/6 88/155/1 68/156/7
f 86/157/4 87/158/6 66/159/5
f 49/160/7 50/161/3 66/162/5
f 88/163/1 85/164/2 65/165/3
f 68/166/7 65/167/3 64/168/5
f 84/169/4 89/170/6 64/171/5
f 70/172/7 63/173/3 62/174/5
f 72/175/7 61/176/3 60/177/5
f 90/178/1 83/179/2 63/180/3
f 74/181/7 59/182/3 58/183/5
f 82/184/4 91/185/6 62/186/5
f 55/187/4 77/188/2 96/189/1
f 96/190/1 77/191/2 57/192/3
f 78/193/4 79/194/2 94/195/1
f 78/196/4 95/197/6 58/198/5
f 80/199/4 81/200/2 92/201/1
f 94/202/1 79/203/2 59/204/3
f 82/205/4 83/206/2 90/207/1
f 80/208/4 93/209/6 60/210/5
f 84/211/4 85/212/2 88/213/1
f 92/214/1 81/215/2 61/216/3
f 102/217/1 101/218/2 97/219/3
f 104/220/4 103/221/6 100/222/5
f 99/223/8 98/224/7 97/225/3
f 103/226/6 102/227/1 98/228/7
f 101/229/2 104/230/4 97/231/3
f 101/232/2 102/233/1 104/234/4
f 108/235/6 107/236/4 105/237/1
f 108/238/6 105/239/1 109/240/7
f 106/241/2 107/242/4 110/243/3
f 110/244/3 111/245/5 112/246/8
f 105/247/1 106/248/2 110/249/3
f 107/250/4 108/251/6 111/252/5
f 116/253/6 115/254/4 113/255/1
f 116/256/6 113/257/1 117/258/7
f 114/259/2 115/260/4 118/261/3
f 118/262/3 119/263/5 120/264/8
f 113/265/1 114/266/2 118/267/3
f 115/268/4 116/269/6 119/270/5
f 1/271/7 6/1/1 2/3/3
f 9/272/3 29/4/2 3/6/5
f 8/8/6 4/273/8 3/9/5
f 19/274/8 39/10/6 1/12/7
f 4/275/8 28/13/7 3/15/5
f 39/276/6 38/16/4 6/18/1
f 2/277/3 5/19/2 18/21/5
f 17/278/3 37/22/2 16/24/5
f 15/279/3 35/25/2 14/27/5
f 13/280/3 33/28/2 12/30/5
f 11/281/3 31/31/2 10/33/5
f 4/282/8 8/34/6 28/36/7
f 27/283/8 47/37/6 26/39/7
f 25/284/8 45/40/6 24/42/7
f 23/285/8 43/43/6 22/45/7
f 21/286/8 41/46/6 20/48/7
f 39/50/6 19/287/8 18/51/5
f 19/288/8 1/52/7 18/54/5
f 20/289/7 40/55/1 17/57/3
f 21/290/8 20/58/7 16/60/5
f 41/62/6 21/291/8 16/63/5
f 23/292/8 22/64/7 14/66/5
f 49/293/7 54/67/1 50/69/3
f 25/294/8 24/70/7 12/72/5
f 22/295/7 42/73/1 15/75/3
f 27/296/8 26/76/7 10/78/5
f 43/80/6 23/297/8 14/81/5
f 8/298/6 7/82/4 48/84/1
f 28/299/7 48/85/1 9/87/3
f 47/300/6 30/88/4 46/90/1
f 47/92/6 27/301/8 10/93/5
f 45/302/6 32/94/4 44/96/1
f 26/303/7 46/97/1 11/99/3
f 43/304/6 34/100/4 42/102/1
f 45/104/6 25/305/8 12/105/5
f 41/306/6 36/106/4 40/108/1
f 24/307/7 44/109/1 13/111/3
f 57/308/3 77/112/2 51/114/5
f 56/116/6 52/309/8 51/117/5
f 67/310/8 87/118/6 49/120/7
f 52/311/8 76/121/7 51/123/5
f 87/312/6 86/124/4 54/126/1
f 50/313/3 53/127/2 66/129/5
f 65/314/3 85/130/2 64/132/5
f 63/315/3 83/133/2 62/135/5
f 61/316/3 81/136/2 60/138/5
f 59/317/3 79/139/2 58/141/5
f 52/318/8 56/142/6 76/144/7
f 75/319/8 95/145/6 74/147/7
f 73/320/8 93/148/6 72/150/7
f 71/321/8 91/151/6 70/153/7
f 69/322/8 89/154/6 68/156/7
f 87/158/6 67/323/8 66/159/5
f 67/324/8 49/160/7 66/162/5
f 68/325/7 88/163/1 65/165/3
f 69/326/8 68/166/7 64/168/5
f 89/170/6 69/327/8 64/171/5
f 71/328/8 70/172/7 62/174/5
f 73/329/8 72/175/7 60/177/5
f 70/330/7 90/178/1 63/180/3
f 75/331/8 74/181/7 58/183/5
f 91/185/6 71/332/8 62/186/5
f 56/333/6 55/187/4 96/189/1
f 76/334/7 96/190/1 57/192/3
f 95/335/6 78/193/4 94/195/1
f 95/197/6 75/336/8 58/198/5
f 93/337/6 80/199/4 92/201/1
f 74/338/7 94/202/1 59/204/3
f 91/339/6 82/205/4 90/207/1
f 93/209/6 73/340/8 60/210/5
f 89/341/6 84/211/4 88/213/1
f 72/342/7 92/214/1 61/216/3
f 98/343/7 102/217/1 97/219/3
f 103/221/6 99/344/8 100/222/5
f 100/345/5 99/223/8 97/225/3
f 99/346/8 103/226/6 98/228/7
f 104/230/4 100/347/5 97/231/3
f 102/233/1 103/348/6 104/234/4
f 107/236/4 106/349/2 105/237/1
f 112/350/8 108/238/6 109/240/7
f 107/242/4 111/351/5 110/243/3
f 109/352/7 110/244/3 112/246/8
f 109/353/7 105/247/1 110/249/3
f 108/251/6 112/354/8 111/252/5
f 115/254/4 114/355/2 113/255/1
f 120/356/8 116/256/6 117/258/7
f 115/260/4 119/357/5 118/261/3
f 117/358/7 118/262/3 120/264/8
f 117/359/7 113/265/1 118/267/3
f 116/269/6 120/360/8 119/270/5
